<?xml version="1.0" encoding="UTF-8" standalone="no"?>
<svg
   version="1.1"
   width="144"
   height="144"
   style="clip-rule:evenodd;fill-rule:evenodd;image-rendering:optimizeQuality;shape-rendering:geometricPrecision;text-rendering:geometricPrecision"
   id="svg12"
   sodipodi:docname="app_icon.svg"
   inkscape:export-filename="app_icon_mini.svg"
   inkscape:export-xdpi="27.648001"
   inkscape:export-ydpi="27.648001"
   xmlns:inkscape="http://www.inkscape.org/namespaces/inkscape"
   xmlns:sodipodi="http://sodipodi.sourceforge.net/DTD/sodipodi-0.dtd"
   xmlns="http://www.w3.org/2000/svg"
   xmlns:svg="http://www.w3.org/2000/svg">
  <defs
     id="defs12" />
  <sodipodi:namedview
     id="namedview12"
     pagecolor="#ffffff"
     bordercolor="#000000"
     borderopacity="0.25"
     inkscape:showpageshadow="2"
     inkscape:pageopacity="0.0"
     inkscape:pagecheckerboard="0"
     inkscape:deskcolor="#d1d1d1"
     inkscape:zoom="4.8931789"
     inkscape:cx="49.660968"
     inkscape:cy="70.199763"
     inkscape:window-width="1920"
     inkscape:window-height="1094"
     inkscape:window-x="-11"
     inkscape:window-y="-11"
     inkscape:window-maximized="1"
     inkscape:current-layer="svg12" />
  <g
     id="g13"
     transform="translate(0.97816848,-0.44908562)">
    <g
       id="g1"
       transform="matrix(0.28687029,0,0,0.28687029,-0.60341629,1.2184396)">
      <path
         style="opacity:1"
         fill="#fbaf7e"
         d="m 438.5,137.5 c -16.887,33.443 -33.554,67.109 -50,101 -3.756,4.428 -3.922,9.095 -0.5,14 5.301,24.567 -3.533,41.734 -26.5,51.5 -30.486,7.33 -49.486,-4.17 -57,-34.5 -34.891,-11.465 -69.724,-23.465 -104.5,-36 -8.07,26.97 -26.236,38.804 -54.5,35.5 -3.991,-1.108 -7.825,-2.608 -11.5,-4.5 -19.831,38.495 -39.3312,77.328 -58.5,116.5 11.5254,9.519 16.8587,21.686 16,36.5 -5.4176,29.573 -23.0843,42.407 -53,38.5 C 14.4007,449.315 3.56738,433.481 6,408.5 c 1.01717,-7.553 3.51717,-14.553 7.5,-21 7.4204,-8.545 16.7538,-13.712 28,-15.5 6.2561,-0.122 12.4228,-0.288 18.5,-0.5 20.001,-39.667 39.6676,-79.334 59,-119 -2.355,-6.893 -4.188,-13.893 -5.5,-21 -0.02,-27.988 13.814,-43.655 41.5,-47 9.168,0.002 17.668,2.335 25.5,7 8.041,5.373 13.375,12.707 16,22 35.557,12.52 71.224,24.853 107,37 4.811,-7.399 10.477,-14.233 17,-20.5 16.834,-10.689 34.001,-11.189 51.5,-1.5 0.765,-0.07 1.265,-0.403 1.5,-1 15.061,-30.701 30.061,-61.368 45,-92 2.653,-5.307 5.32,-10.64 8,-16 -18.2,-14.12 -23.366,-32.1204 -15.5,-54 13.6,-23.8617 33.1,-31.0284 58.5,-21.5 18.853,10.206 26.686,26.0393 23.5,47.5 -4.427,17.426 -15.26,28.593 -32.5,33.5 -5.375,1.037 -10.708,1.37 -16,1 -2.172,3.847 -4.172,7.681 -6,11.5 z m 7,-79 c 19.507,-0.6568 29.34,8.6766 29.5,28 -6.425,20.421 -19.259,25.921 -38.5,16.5 -14.845,-14.0665 -14.512,-27.7332 1,-41 2.658,-1.478 5.325,-2.6446 8,-3.5 z m -420,345 c 13.7422,10.688 29.4089,15.355 47,14 -4.8735,16.684 -15.8735,23.184 -33,19.5 -10.1767,-4.503 -15.8434,-12.336 -17,-23.5 0.5015,-3.528 1.5015,-6.862 3,-10 z"
         id="path1" />
    </g>
    <g
       id="g2"
       transform="matrix(0.28687029,0,0,0.28687029,-0.60341629,1.2184396)">
      <path
         style="opacity:1"
         fill="#318aa1"
         d="m 418.5,135.5 c -14.939,30.632 -29.939,61.299 -45,92 -18.498,-35.65 -47.498,-57.484 -87,-65.5 -29.768,-5.645 -57.768,-0.978 -84,14 -7.231,5.411 -14.564,10.578 -22,15.5 -7.832,-4.665 -16.332,-6.998 -25.5,-7 -27.686,3.345 -41.52,19.012 -41.5,47 0,1 0,2 0,3 -13.6114,3.281 -25.2781,9.948 -35,20 -6.764,-30.042 3.9027,-51.209 32,-63.5 2.932,-0.953 5.932,-1.453 9,-1.5 1.333,0 2.667,0 4,0 0,-2.333 0,-4.667 0,-7 4.183,-29.351 20.85,-46.851 50,-52.5 8.425,-0.902 16.759,-0.402 25,1.5 5.473,-8.26 10.973,-16.593 16.5,-25 34.637,-37.8739 76.137,-48.0406 124.5,-30.5 27.791,13.1231 47.291,33.956 58.5,62.5 6.65,-2.024 13.484,-3.024 20.5,-3 z"
         id="path2" />
    </g>
    <g
       id="g3"
       transform="matrix(0.28687029,0,0,0.28687029,-0.60341629,1.2184396)">
      <path
         style="opacity:1"
         fill="#318aa1"
         d="m 438.5,137.5 c 44.26,18.178 61.426,50.845 51.5,98 -4.619,12.436 -11.453,23.436 -20.5,33 -21.715,-22.018 -48.049,-31.352 -79,-28 -1.213,-0.247 -1.88,-0.914 -2,-2 16.446,-33.891 33.113,-67.557 50,-101 z"
         id="path3" />
    </g>
    <g
       id="g4"
       transform="matrix(0.28687029,0,0,0.28687029,-0.60341629,1.2184396)">
      <path
         style="opacity:1"
         fill="#cfd9ee"
         d="m 373.5,227.5 c -0.235,0.597 -0.735,0.93 -1.5,1 -17.499,-9.689 -34.666,-9.189 -51.5,1.5 -6.523,6.267 -12.189,13.101 -17,20.5 -35.776,-12.147 -71.443,-24.48 -107,-37 -2.625,-9.293 -7.959,-16.627 -16,-22 7.436,-4.922 14.769,-10.089 22,-15.5 26.232,-14.978 54.232,-19.645 84,-14 39.502,8.016 68.502,29.85 87,65.5 z"
         id="path4" />
    </g>
    <g
       id="g5"
       transform="matrix(0.28687029,0,0,0.28687029,-0.60341629,1.2184396)">
      <path
         style="opacity:0.875"
         fill="#1a4854"
         d="m 123.5,182.5 c 0,2.333 0,4.667 0,7 -1.333,0 -2.667,0 -4,0 0.709,-0.904 1.709,-1.237 3,-1 -0.295,-2.235 0.039,-4.235 1,-6 z"
         id="path5" />
    </g>
    <g
       id="g6"
       transform="matrix(0.28687029,0,0,0.28687029,-0.60341629,1.2184396)">
      <path
         style="opacity:1"
         fill="#388ca2"
         d="m 168.5,205.5 c -6.908,9.47 -13.074,19.47 -18.5,30 -5.928,-2.238 -12.095,-3.238 -18.5,-3 -1.07,-17.095 6.763,-27.428 23.5,-31 4.787,0.43 9.287,1.763 13.5,4 z"
         id="path6" />
    </g>
    <g
       id="g7"
       transform="matrix(0.28687029,0,0,0.28687029,-0.60341629,1.2184396)">
      <path
         style="opacity:1"
         fill="#cfd9ed"
         d="m 168.5,205.5 c 11.745,7.737 15.245,18.404 10.5,32 -3.715,7.381 -9.549,12.215 -17.5,14.5 -15.147,1.268 -25.147,-5.232 -30,-19.5 6.405,-0.238 12.572,0.762 18.5,3 5.426,-10.53 11.592,-20.53 18.5,-30 z"
         id="path7" />
    </g>
    <g
       id="g8"
       transform="matrix(0.28687029,0,0,0.28687029,-0.60341629,1.2184396)">
      <path
         style="opacity:1"
         fill="#cfd9ee"
         d="m 388.5,238.5 c 0.12,1.086 0.787,1.753 2,2 30.951,-3.352 57.285,5.982 79,28 24.824,29.933 29.658,62.933 14.5,99 -14.781,28.151 -37.948,44.651 -69.5,49.5 -107.666,0.5 -215.333,0.667 -323,0.5 0.8587,-14.814 -4.4746,-26.981 -16,-36.5 19.1688,-39.172 38.669,-78.005 58.5,-116.5 3.675,1.892 7.509,3.392 11.5,4.5 28.264,3.304 46.43,-8.53 54.5,-35.5 34.776,12.535 69.609,24.535 104.5,36 7.514,30.33 26.514,41.83 57,34.5 22.967,-9.766 31.801,-26.933 26.5,-51.5 -3.422,-4.905 -3.256,-9.572 0.5,-14 z"
         id="path8" />
    </g>
    <g
       id="g9"
       transform="matrix(0.28687029,0,0,0.28687029,-0.60341629,1.2184396)">
      <path
         style="opacity:1"
         fill="#ced8ec"
         d="m 113.5,231.5 c 1.312,7.107 3.145,14.107 5.5,21 -19.3324,39.666 -38.999,79.333 -59,119 -6.0772,0.212 -12.2439,0.378 -18.5,0.5 -11.2462,1.788 -20.5796,6.955 -28,15.5 -12.905914,-27.872 -8.23925,-52.372 14,-73.5 2.7223,-2.358 5.7223,-4.191 9,-5.5 4.7074,-0.86 9.0407,-2.527 13,-5 3.4085,-1.403 7.0752,-2.07 11,-2 0.1788,-18.004 6.1788,-33.671 18,-47 9.7219,-10.052 21.3886,-16.719 35,-20 0,-1 0,-2 0,-3 z"
         id="path9" />
    </g>
    <g
       id="g10"
       transform="matrix(0.28687029,0,0,0.28687029,-0.60341629,1.2184396)">
      <path
         style="opacity:1"
         fill="#d0d9ed"
         d="m 338.5,239.5 c 25.09,-1.753 35.59,9.58 31.5,34 -4.384,10.026 -12.051,15.026 -23,15 -10.42,-0.047 -18.087,-4.714 -23,-14 -5.012,-15.955 -0.178,-27.621 14.5,-35 z"
         id="path10" />
    </g>
    <g
       id="g11"
       transform="matrix(0.28687029,0,0,0.28687029,-0.60341629,1.2184396)">
      <path
         style="opacity:1"
         fill="#9fa6b6"
         d="m 49.5,303.5 c -3.9593,2.473 -8.2926,4.14 -13,5 3.8947,-2.634 8.228,-4.301 13,-5 z"
         id="path11" />
    </g>
    <g
       id="g12"
       transform="matrix(0.28687029,0,0,0.28687029,-0.60341629,1.2184396)">
      <path
         style="opacity:1"
         fill="#ced7eb"
         d="m 72.5,417.5 c -17.5911,1.355 -33.2578,-3.312 -47,-14 2.7901,-4.954 6.7901,-8.787 12,-11.5 13.3078,-4.623 24.1411,-1.456 32.5,9.5 3.1323,5.153 3.9656,10.487 2.5,16 z"
         id="path12" />
    </g>
  </g>
</svg>